<svg class="hidden">
  <symbol xmlns="http://www.w3.org/2000/svg" viewBox="0 0 512 512" id="language">
    <path fill="#ffffff" d="M437.02 74.98C388.667 26.629 324.38 0 256 0S123.333 26.629 74.98 74.98C26.629 123.332 0 187.62 0 256s26.629 132.668 74.98 181.02C123.333 485.371 187.62 512 256 512s132.667-26.629 181.02-74.98C485.371 388.668 512 324.38 512 256s-26.629-132.668-74.98-181.02zM207.449 35.268a327.59 327.59 0 00-27.154 29.893c-16.058 20.037-29.429 41.603-39.887 64.282h-71.56c31.963-47.115 81.235-81.567 138.601-94.175zM51.695 159.443h76.819c-8.743 26.116-13.829 53.433-15.157 81.557H30.51c1.911-29.009 9.313-56.538 21.185-81.557zM30.51 271h82.847c1.328 28.124 6.413 55.441 15.157 81.557H51.695C39.823 327.538 32.421 300.009 30.51 271zm38.338 111.557h71.56c10.458 22.678 23.829 44.245 39.887 64.282a327.3 327.3 0 0027.154 29.893c-57.366-12.608-106.638-47.06-138.601-94.175zM241 466.806c-10.683-9.211-23.966-22.096-37.295-38.728-11.657-14.546-21.64-29.735-29.957-45.521H241v84.249zm0-114.249h-80.782c-9.751-25.825-15.367-53.063-16.823-81.557H241v81.557zM241 241h-97.605c1.457-28.49 7.08-55.727 16.835-81.557H241V241zm0-111.557h-67.252c8.146-15.462 17.894-30.351 29.243-44.627C216.49 67.837 230.087 54.644 241 45.236v84.207zM481.49 241h-82.847c-1.328-28.124-6.413-55.441-15.157-81.557h76.819c11.872 25.019 19.275 52.548 21.185 81.557zm-38.338-111.557h-71.56c-10.458-22.678-23.829-44.245-39.887-64.282a327.3 327.3 0 00-27.154-29.893c57.367 12.608 106.639 47.06 138.601 94.175zM271 45.194c10.683 9.211 23.966 22.096 37.295 38.728 11.657 14.546 21.64 29.735 29.958 45.521H271V45.194zm0 114.249h80.782c9.752 25.825 15.367 53.063 16.823 81.557H271v-81.557zM271 271h97.604c-1.457 28.49-7.08 55.727-16.835 81.557H271V271zm0 195.763v-84.206h67.252c-8.146 15.462-17.894 30.351-29.243 44.626-13.499 16.979-27.095 30.171-38.009 39.58zm33.552 9.969a327.59 327.59 0 0027.154-29.893c16.058-20.037 29.429-41.603 39.887-64.282h71.56c-31.963 47.115-81.235 81.567-138.601 94.175zm155.753-124.175h-76.819c8.743-26.116 13.829-53.433 15.157-81.557h82.847c-1.91 29.009-9.313 56.538-21.185 81.557z"></path>
  </symbol>
  <symbol xmlns="http://www.w3.org/2000/svg" viewBox="0 0 512.005 512.005" id="search">
    <path fill="#ffffff" d="M505.749 475.587l-145.6-145.6c28.203-34.837 45.184-79.104 45.184-127.317C405.333 90.926 314.41.003 202.666.003S0 90.925 0 202.669s90.923 202.667 202.667 202.667c48.213 0 92.48-16.981 127.317-45.184l145.6 145.6c4.16 4.16 9.621 6.251 15.083 6.251s10.923-2.091 15.083-6.251c8.341-8.341 8.341-21.824-.001-30.165zM202.667 362.669c-88.235 0-160-71.765-160-160s71.765-160 160-160 160 71.765 160 160-71.766 160-160 160z"></path>
  </symbol>
</svg>